<?xml version="1.0" encoding="UTF-8" standalone="no"?>
<!-- Created with Inkscape (http://www.inkscape.org/) -->

<svg
   width="180"
   height="180"
   viewBox="0 0 47.624999 47.625001"
   version="1.1"
   id="svg5"
   xml:space="preserve"
   inkscape:version="1.4.3 (0d15f75, 2025-12-25)"
   sodipodi:docname="logomarca.svg"
   inkscape:export-filename="logomarca.png"
   inkscape:export-xdpi="96"
   inkscape:export-ydpi="96"
   inkscape:export-batch-name="icon-"
   inkscape:export-batch-path="D:\kai\workspace\kai\marca"
   xmlns:inkscape="http://www.inkscape.org/namespaces/inkscape"
   xmlns:sodipodi="http://sodipodi.sourceforge.net/DTD/sodipodi-0.dtd"
   xmlns="http://www.w3.org/2000/svg"
   xmlns:svg="http://www.w3.org/2000/svg"><sodipodi:namedview
     id="namedview7"
     pagecolor="#ffffff"
     bordercolor="#000000"
     borderopacity="0.25"
     inkscape:showpageshadow="2"
     inkscape:pageopacity="0.0"
     inkscape:pagecheckerboard="0"
     inkscape:deskcolor="#d1d1d1"
     inkscape:document-units="px"
     showgrid="false"
     showguides="true"
     inkscape:zoom="0.5"
     inkscape:cx="164"
     inkscape:cy="-339"
     inkscape:window-width="1920"
     inkscape:window-height="991"
     inkscape:window-x="-9"
     inkscape:window-y="-9"
     inkscape:window-maximized="1"
     inkscape:current-layer="g368" /><defs
     id="defs2" /><g
     inkscape:label="Camada 1"
     inkscape:groupmode="layer"
     id="layer1"><text
       xml:space="preserve"
       style="font-style:normal;font-variant:normal;font-weight:normal;font-stretch:normal;font-size:0.358837px;font-family:impact;-inkscape-font-specification:impact;text-align:justify;fill:#000000;fill-opacity:1;stroke:none;stroke-width:1.19062;stroke-linecap:round;stroke-linejoin:bevel;stroke-dasharray:none;stroke-opacity:1"
       x="11.311686"
       y="57.079754"
       id="text3338"><tspan
         sodipodi:role="line"
         id="tspan3336"
         style="font-style:normal;font-variant:normal;font-weight:normal;font-stretch:normal;font-family:Dyuthi;-inkscape-font-specification:Dyuthi;fill:#000000;stroke:none;stroke-width:1.19062"
         x="11.311686"
         y="57.079754" /></text><g
       id="g368"
       transform="translate(-56.7666,-15.589664)"
       style="stroke-width:1"><g
         id="g344"
         transform="matrix(1.0384615,0,0,1.0384615,6.2264562,5.5728376)"
         style="stroke-width:0.962963"><g
           id="g337"
           transform="translate(0,0.24796235)"
           style="stroke-width:0.962963"><rect
             style="fill:none;fill-opacity:1;stroke:none;stroke-width:0.509569;stroke-linecap:square;stroke-linejoin:round;stroke-dasharray:none;paint-order:markers stroke fill"
             id="rect336"
             width="20.637501"
             height="3.4395833"
             x="61.280094"
             y="29.973249"
             rx="0"
             ry="0" /><path
             id="path152"
             style="font-size:2.55684px;font-family:Philosopher;-inkscape-font-specification:Philosopher;fill:#000000;fill-opacity:1;stroke:none;stroke-width:0;stroke-linecap:square;stroke-linejoin:bevel;stroke-dasharray:none;stroke-dashoffset:0;paint-order:markers stroke fill"
             d="m 80.3935,30.922381 c 0.08034,0 0.13867,0.02994 0.188507,0.098 0.04883,0.06668 0.07627,0.167812 0.07627,0.306984 0,0.142413 -0.02563,0.244264 -0.06907,0.306263 -0.04344,0.06199 -0.10313,0.09079 -0.195701,0.09079 -0.09257,0 -0.151541,-0.02879 -0.194981,-0.09079 -0.04344,-0.062 -0.06906,-0.16385 -0.06906,-0.306263 0,-0.144517 0.02709,-0.247254 0.07266,-0.310587 9.9e-5,-1.4e-4 -10e-5,-5.28e-4 0,-7.03e-4 0.04926,-0.06461 0.108065,-0.09368 0.191383,-0.09368 z m -0.139582,1.43331 0.161888,0.01729 c 1.74e-4,4.8e-5 5.25e-4,-4.9e-5 7.01e-4,0 0.113609,0.02192 0.198798,0.0675 0.261174,0.136918 5.27e-4,4.74e-4 8.77e-4,9.48e-4 0.0014,0.0014 0.06437,0.06676 0.09569,0.147223 0.09569,0.251495 0,0.134493 -0.03425,0.226058 -0.09785,0.285365 -1.76e-4,2.28e-4 -5.26e-4,4.74e-4 -7.02e-4,7.03e-4 -0.06513,0.06299 -0.156418,0.09584 -0.282759,0.09584 -0.12634,0 -0.216907,-0.03285 -0.28204,-0.09584 -1.76e-4,-2.29e-4 -5.25e-4,-4.75e-4 -7.02e-4,-7.03e-4 -0.0636,-0.0593 -0.09785,-0.150872 -0.09785,-0.285365 0,-0.113256 0.02223,-0.199418 0.06259,-0.262305 0.03983,-0.06205 0.09919,-0.109257 0.178433,-0.144845 z M 80.3935,30.673766 c -0.259642,0 -0.471988,0.0492 -0.634588,0.151329 -0.163316,0.10435 -0.246785,0.278613 -0.246785,0.502274 0,0.126365 0.04002,0.244132 0.117997,0.347338 1.77e-4,2.45e-4 5.27e-4,4.75e-4 7.02e-4,7.03e-4 0.06841,0.08741 0.159389,0.141693 0.256857,0.185199 -0.07131,0.04854 -0.142459,0.101104 -0.142459,0.183036 0,0.06169 0.01767,0.117712 0.05397,0.16214 0.01773,0.0217 0.04986,0.03122 0.07483,0.04684 -0.110911,0.03857 -0.219541,0.0808 -0.305782,0.15205 -0.112469,0.09293 -0.172676,0.216058 -0.172676,0.358149 0,0.224982 0.09489,0.399482 0.276283,0.50011 0.18087,0.101556 0.421385,0.149887 0.721644,0.149887 0.299974,0 0.539628,-0.04833 0.71805,-0.149887 0.183933,-0.100485 0.280601,-0.27494 0.280601,-0.50011 0,-0.208798 -0.101808,-0.377061 -0.291393,-0.487138 -0.185047,-0.111585 -0.420702,-0.168384 -0.705819,-0.173671 -0.133319,-0.0026 -0.230866,-0.01062 -0.287075,-0.02233 -0.02624,-0.0055 -0.04217,-0.01354 -0.04892,-0.01946 -0.0068,-0.0059 -0.0072,-0.0075 -0.0072,-0.01657 0,-0.01484 0.0024,-0.02121 0.0094,-0.0281 0.0069,-0.0069 0.02143,-0.0149 0.04677,-0.02018 7.02e-4,1.8e-5 0.0014,1.8e-5 0.0022,0 0.05451,-0.01365 0.150593,-0.02235 0.283479,-0.02235 0.274695,0 0.489567,-0.04699 0.643222,-0.147726 0.158513,-0.102062 0.23887,-0.274665 0.23887,-0.497946 0,-0.102437 -0.04053,-0.201687 -0.115118,-0.293294 l -7.02e-4,-7.03e-4 c -0.0462,-0.05854 -0.116508,-0.09112 -0.180592,-0.130431 l 0.236713,-0.03099 c 0.02308,-0.003 0.04031,-0.02279 0.04029,-0.04611 v -0.105211 c 1.76e-4,-0.02594 -0.02086,-0.04703 -0.04677,-0.04684 z m -1.957725,0 c -0.235351,0 -0.415154,0.06785 -0.555444,0.180876 -0.03109,-0.04248 -0.06537,-0.08255 -0.113679,-0.102328 -0.05871,-0.02756 -0.132903,-0.03963 -0.224482,-0.03963 h -0.384206 c -0.02591,-1.94e-4 -0.04696,0.02089 -0.04677,0.04684 v 0.116739 c 1.74e-4,0.02567 0.02114,0.04631 0.04677,0.04612 h 0.03885 c 0.09956,0 0.148448,0.02611 0.172676,0.07277 1.76e-4,4.75e-4 5.27e-4,9.49e-4 7.01e-4,0.0014 0.02905,0.04988 0.04822,0.140757 0.04822,0.268791 v 1.322338 c -1.76e-4,0.02567 0.02042,0.04664 0.04604,0.04684 h 0.505079 c 0.02591,1.94e-4 0.04696,-0.02089 0.04677,-0.04684 v -1.346118 c 0,-0.07233 -0.0044,-0.125415 -0.01799,-0.166463 l -0.0036,-0.01802 c 0.02861,-0.02436 0.06049,-0.04739 0.106484,-0.06341 5.26e-4,7e-6 8.78e-4,7e-6 0.0014,0 0.056,-0.02103 0.121347,-0.03243 0.197138,-0.03243 0.102702,0 0.175063,0.03408 0.231676,0.10665 1.75e-4,2.28e-4 5.27e-4,4.75e-4 7.01e-4,7.03e-4 0.05704,0.07031 0.09065,0.190773 0.09065,0.363912 v 1.155153 c -1.73e-4,0.02565 0.02041,0.04661 0.04603,0.04682 h 0.50508 c 0.0259,1.92e-4 0.04696,-0.02089 0.04677,-0.04684 V 31.4361 c 0,-0.253865 -0.0653,-0.448919 -0.201454,-0.574333 -1.5e-4,-1.43e-4 -5.27e-4,1.42e-4 -7.02e-4,0 -0.133002,-0.127253 -0.32971,-0.188081 -0.582786,-0.188081 z m -1.837572,-0.68459 c -0.07182,0 -0.137183,0.02379 -0.187067,0.07062 -1.76e-4,4.58e-4 -5.26e-4,9.33e-4 -7.01e-4,0.0014 -0.04833,0.04841 -0.07195,0.116024 -0.07195,0.192404 0,0.09221 0.02841,0.175187 0.08491,0.240688 1.74e-4,2.29e-4 5.27e-4,4.75e-4 7e-4,7.03e-4 0.06112,0.06734 0.149132,0.100891 0.251821,0.100891 0.07149,0 0.135932,-0.02412 0.183468,-0.07134 l 7.03e-4,-7.02e-4 c 0.05074,-0.04805 0.07627,-0.115776 0.07627,-0.192406 0,-0.09234 -0.03031,-0.175428 -0.08921,-0.240687 -0.05869,-0.06806 -0.146256,-0.101608 -0.248943,-0.101608 z m -0.485655,0.723503 c -0.02562,2.11e-4 -0.04623,0.02117 -0.04604,0.04684 v 0.116739 c 1.77e-4,0.02539 0.02071,0.04592 0.04604,0.04612 h 0.03885 c 0.09956,0 0.150404,0.02594 0.176993,0.07351 1.77e-4,2.27e-4 5.27e-4,4.75e-4 7.02e-4,7.02e-4 0.02904,0.04988 0.04821,0.140755 0.04821,0.26879 v 1.322338 c -1.75e-4,0.02566 0.02042,0.04663 0.04604,0.04684 h 0.505081 c 0.0259,1.94e-4 0.04696,-0.02089 0.04677,-0.04684 v -1.32234 c 0,-0.134415 -0.01023,-0.238729 -0.03309,-0.316351 v -7.03e-4 c -0.02294,-0.07998 -0.06413,-0.143428 -0.124472,-0.181596 -0.06038,-0.03821 -0.14048,-0.05404 -0.23887,-0.05404 z m -1.064122,0.229158 c 0.0671,0 0.13929,0.01743 0.217287,0.05405 0.02602,0.01313 0.04678,0.02712 0.06619,0.04107 v 1.148666 c -0.02738,0.04867 -0.05374,0.08697 -0.07554,0.108815 -1.75e-4,4.57e-4 -5.27e-4,9.32e-4 -7.01e-4,0.0014 -0.07118,0.07604 -0.144196,0.109534 -0.226638,0.109532 -0.112711,2e-6 -0.185692,-0.052 -0.24031,-0.177269 -0.05347,-0.131435 -0.08202,-0.316592 -0.08202,-0.554159 0,-0.255513 0.03288,-0.444196 0.0921,-0.562803 0.05921,-0.118607 0.135641,-0.169344 0.249659,-0.169344 z m 0.01942,-0.968513 c -0.02591,-1.93e-4 -0.04696,0.02089 -0.04677,0.04684 v 0.116739 c 1.76e-4,0.02567 0.02114,0.04631 0.04677,0.04611 h 0.03885 c 0.09957,0 0.150404,0.02594 0.176995,0.07351 1.76e-4,2.27e-4 5.26e-4,4.75e-4 7.01e-4,7.03e-4 0.02904,0.04988 0.04748,0.140755 0.04748,0.268789 v 0.233482 c -0.01438,-0.0075 -0.02737,-0.01601 -0.04244,-0.02307 -0.0012,-5.28e-4 -0.0024,-9.85e-4 -0.0036,-0.0014 -0.110298,-0.04042 -0.215454,-0.06126 -0.315135,-0.06126 -0.279607,0 -0.503723,0.09617 -0.657611,0.286086 -0.149995,0.185741 -0.223761,0.426105 -0.223761,0.714135 0,0.28789 0.07235,0.528768 0.219444,0.717016 1.74e-4,2.45e-4 5.26e-4,4.75e-4 7.01e-4,7.03e-4 0.151177,0.187202 0.369797,0.281761 0.641783,0.281761 0.145144,0 0.269689,-0.03796 0.36694,-0.115299 0.03702,-0.02749 0.06101,-0.0571 0.08561,-0.08648 l 0.112961,0.144846 c 0.0088,0.01137 0.02234,0.01802 0.03669,0.01802 h 0.330245 c 0.02562,-2.1e-4 0.04624,-0.02117 0.04605,-0.04684 v -2.061703 c 0,-0.134717 -0.01013,-0.239393 -0.0331,-0.317073 -0.02296,-0.07978 -0.06424,-0.143497 -0.12447,-0.181597 -0.06038,-0.03821 -0.139759,-0.05405 -0.238152,-0.05405 z m -2.148384,0.968513 c 0.115395,0 0.196343,0.05581 0.261174,0.188081 0.06551,0.13366 0.100732,0.315268 0.100732,0.544069 0,0.228799 -0.03521,0.409686 -0.100732,0.543347 -0.06483,0.13227 -0.145779,0.18808 -0.261174,0.18808 -0.115397,0 -0.196344,-0.05581 -0.261175,-0.18808 -0.06551,-0.133661 -0.100012,-0.314548 -0.100012,-0.543347 0,-0.228801 0.0345,-0.410409 0.100012,-0.544069 0.06483,-0.13227 0.145778,-0.188081 0.261175,-0.188081 z m 0,-0.268071 c -0.196052,0 -0.370703,0.0452 -0.52091,0.135477 -0.146705,0.0872 -0.260828,0.207962 -0.339598,0.360311 -0.07884,0.149757 -0.117995,0.31894 -0.117995,0.504433 0,0.18549 0.03931,0.355134 0.117995,0.507315 -2e-6,2.29e-4 -2e-6,4.74e-4 0,7.03e-4 0.07886,0.149802 0.192393,0.270651 0.338878,0.36031 5.27e-4,7e-6 8.78e-4,7e-6 0.0014,0 0.150155,0.0875 0.324352,0.131152 0.520189,0.131152 0.195839,0 0.369572,-0.04347 0.517312,-0.131152 0.14911,-0.08961 0.264232,-0.210314 0.343195,-0.36031 1.76e-4,-2.29e-4 5.27e-4,-4.74e-4 7.02e-4,-7.03e-4 0.07868,-0.152181 0.117997,-0.321825 0.117997,-0.507315 0,-0.185493 -0.03987,-0.354676 -0.118717,-0.504433 h 7.02e-4 C 73.701822,31.017161 73.58581,30.896351 73.436705,30.809243 73.28904,30.719023 73.11519,30.673766 72.919393,30.673766 Z m -1.92679,0 c -0.206045,0 -0.384913,0.04475 -0.533139,0.135477 -0.146771,0.08983 -0.259779,0.21267 -0.336001,0.365355 -0.07325,0.149464 -0.109364,0.31685 -0.109364,0.499389 0,0.182536 0.03624,0.350382 0.109364,0.502271 1.75e-4,2.29e-4 5.26e-4,4.74e-4 7e-4,7.03e-4 0.07629,0.15008 0.188689,0.271305 0.335284,0.36103 0.148225,0.09072 0.327092,0.135476 0.533137,0.135476 0.205446,0 0.372084,-0.03974 0.49645,-0.124666 0.118953,-0.08124 0.218077,-0.183774 0.296427,-0.305544 0.01288,-0.0205 0.0079,-0.04747 -0.01152,-0.06197 l -0.120153,-0.08935 c -0.02048,-0.01522 -0.0494,-0.01106 -0.06476,0.0094 -0.07525,0.100484 -0.15377,0.17642 -0.233832,0.22988 -0.0739,0.0484 -0.167651,0.07423 -0.284919,0.07423 -0.149486,0 -0.250926,-0.05508 -0.324488,-0.172948 -0.07357,-0.117883 -0.114398,-0.303933 -0.114398,-0.558481 0,-0.251788 0.04118,-0.436915 0.116558,-0.554877 0.07907,-0.122399 0.174808,-0.177272 0.302903,-0.177272 0.149356,0 0.259341,0.04083 0.340318,0.119622 1.75e-4,2e-6 5.27e-4,2e-6 7.01e-4,0 0.08056,0.07607 0.127574,0.187646 0.137422,0.343015 0.0017,0.02426 0.02179,0.0431 0.04604,0.04324 h 0.116559 c 0.02535,-2.12e-4 0.04584,-0.02073 0.04604,-0.04611 0,-0.174718 -0.0048,-0.298397 -0.01581,-0.376163 -0.01147,-0.08046 -0.0425,-0.149945 -0.09426,-0.201775 -0.109397,-0.109569 -0.320015,-0.149889 -0.635308,-0.149889 z m -2.109537,0.268071 c 0.10985,0 0.182522,0.05319 0.237432,0.182316 0.05584,0.131313 0.08561,0.315069 0.08561,0.549834 0,0.255514 -0.03288,0.444196 -0.09208,0.562803 -0.05921,0.118606 -0.136361,0.168624 -0.250381,0.168624 -0.07844,0 -0.149304,-0.01729 -0.215128,-0.0526 -7.03e-4,-4.93e-4 -0.0014,-9.49e-4 -0.0021,-0.0014 -0.02392,-0.01106 -0.04527,-0.02569 -0.06619,-0.04109 v -1.068661 c 0,-0.05988 -0.005,-0.107794 -0.01799,-0.147007 l -0.0028,-0.01513 c 0.09437,-0.08737 0.197909,-0.137637 0.32377,-0.137637 z m 0.07771,-0.268071 c -0.193654,0 -0.363919,0.07673 -0.515873,0.197449 -0.02963,-0.04637 -0.06098,-0.09147 -0.107203,-0.113859 -0.0596,-0.03142 -0.136611,-0.04468 -0.231674,-0.04468 h -0.384207 c -0.02591,-1.93e-4 -0.04696,0.02089 -0.04677,0.04684 v 0.116739 c 1.77e-4,0.02567 0.02114,0.04631 0.04677,0.04612 h 0.03885 c 0.09956,0 0.148447,0.02611 0.172677,0.07277 1.75e-4,4.75e-4 5.26e-4,9.49e-4 7.02e-4,0.0014 0.02903,0.04988 0.04821,0.140758 0.04821,0.268792 v 2.061693 c -1.75e-4,0.02567 0.02042,0.04664 0.04605,0.04684 h 0.505079 c 0.02591,1.95e-4 0.04696,-0.02089 0.04677,-0.04684 v -0.73937 c 0.0153,0.0076 0.02799,0.01748 0.04461,0.02378 0.09901,0.04133 0.204734,0.06197 0.316576,0.06197 0.279457,0 0.502579,-0.09425 0.654014,-0.281764 0.152496,-0.188192 0.228077,-0.429561 0.228077,-0.717736 0,-0.287768 -0.07477,-0.527744 -0.22448,-0.713414 -0.148495,-0.1897 -0.366299,-0.286806 -0.638185,-0.286806 z m -2.221778,0.268071 c 0.09109,0 0.153226,0.0388 0.204335,0.131874 0.0445,0.07898 0.06685,0.24328 0.07194,0.448224 h -0.552563 c 0.0053,-0.199999 0.02872,-0.361339 0.07554,-0.443181 0.05676,-0.09711 0.119017,-0.136917 0.200737,-0.136917 z m 0,-0.268071 c -0.170279,0 -0.32582,0.04014 -0.46263,0.119624 -0.137038,0.0771 -0.245938,0.19164 -0.324489,0.340851 -2e-6,2.29e-4 -2e-6,4.75e-4 0,7.03e-4 -0.07654,0.150582 -0.11368,0.331135 -0.11368,0.539023 0,0.187771 0.03771,0.358731 0.11368,0.510919 -2e-6,2.29e-4 -2e-6,4.74e-4 0,7.03e-4 0.07872,0.149514 0.190185,0.269493 0.331684,0.356706 0.142475,0.08782 0.308416,0.131154 0.494289,0.131154 0.195414,0 0.355548,-0.04051 0.47702,-0.125389 0.118763,-0.08119 0.218172,-0.1832 0.296429,-0.304822 0.01287,-0.0205 0.0079,-0.04747 -0.01151,-0.06197 l -0.120873,-0.08935 c -0.02048,-0.01523 -0.0494,-0.01106 -0.06476,0.0094 -0.07524,0.100484 -0.153051,0.176418 -0.233115,0.229877 -0.07398,0.04862 -0.167373,0.07423 -0.284915,0.07423 -0.121878,0 -0.208369,-0.04614 -0.276283,-0.147006 -0.06054,-0.09226 -0.08953,-0.259977 -0.09569,-0.468402 h 1.113765 c 0.02378,-6.9e-5 0.04365,-0.01811 0.04605,-0.04179 l 0.0079,-0.07783 c 2e-6,-2.28e-4 2e-6,-4.74e-4 0,-7.03e-4 0.0053,-0.06326 0.0079,-0.119872 0.0079,-0.170787 0,-0.160656 -0.04004,-0.305707 -0.120154,-0.43021 -0.07944,-0.125878 -0.189061,-0.224389 -0.325208,-0.292571 -0.136356,-0.06829 -0.28863,-0.102329 -0.455436,-0.102329 z m -1.977151,0.268071 c 0.09109,0 0.152505,0.0388 0.203612,0.131874 1.77e-4,1e-6 5.27e-4,1e-6 7.02e-4,0 0.04449,0.07898 0.06685,0.24328 0.07195,0.448224 h -0.552557 c 0.0054,-0.199999 0.02871,-0.361339 0.07554,-0.443181 0.05677,-0.09711 0.119019,-0.136917 0.200741,-0.136917 z m 0,-0.268071 c -0.170281,0 -0.325821,0.04014 -0.462631,0.119624 -0.13704,0.0771 -0.245936,0.19164 -0.32449,0.340851 -1.77e-4,2.29e-4 -5.27e-4,4.75e-4 -7.02e-4,7.03e-4 -0.07654,0.150582 -0.11368,0.331135 -0.11368,0.539023 0,0.187771 0.0377,0.358731 0.11368,0.510919 1.75e-4,2.46e-4 5.25e-4,4.74e-4 7.02e-4,7.03e-4 0.07872,0.149514 0.190185,0.269493 0.331683,0.356706 0.142475,0.08782 0.308417,0.131154 0.494289,0.131154 0.195415,0 0.355552,-0.04051 0.47702,-0.125389 0.118578,-0.08115 0.217546,-0.183343 0.29571,-0.304822 0.01302,-0.02033 0.0083,-0.04727 -0.01081,-0.06197 l -0.120877,-0.08935 c -0.02048,-0.01523 -0.0494,-0.01106 -0.06476,0.0094 -0.07524,0.100484 -0.153053,0.176418 -0.233112,0.229877 -0.07398,0.04862 -0.167376,0.07423 -0.284919,0.07423 -0.121879,0 -0.208368,-0.04614 -0.276284,-0.147006 -0.06053,-0.09226 -0.08953,-0.259977 -0.09569,-0.468402 h 1.113767 c 0.02378,-6.9e-5 0.04365,-0.01811 0.04605,-0.04179 l 0.0079,-0.07783 c 10e-7,-2.28e-4 10e-7,-4.74e-4 0,-7.03e-4 0.0053,-0.06326 0.0079,-0.119872 0.0079,-0.170787 0,-0.160407 -0.0403,-0.305119 -0.120153,-0.429488 -0.0795,-0.126301 -0.188744,-0.224954 -0.325211,-0.293293 -0.136352,-0.06829 -0.288628,-0.102329 -0.455434,-0.102329 z m -2.909612,-0.700442 c -0.0259,-1.93e-4 -0.04696,0.02089 -0.04676,0.04684 v 0.116739 c 1.75e-4,0.02566 0.02114,0.0463 0.04676,0.04611 h 0.03885 c 0.09957,0 0.150408,0.02594 0.176998,0.07351 -10e-7,2.27e-4 -10e-7,4.75e-4 0,7.03e-4 0.02902,0.04988 0.04821,0.140755 0.04821,0.268789 v 2.061694 c -1.76e-4,0.02594 0.02086,0.04703 0.04677,0.04684 h 0.504356 c 0.02591,1.94e-4 0.04696,-0.02089 0.04677,-0.04684 v -0.624058 l 0.289238,0.379767 c 0.08588,0.115605 0.178881,0.200991 0.279879,0.254379 5.27e-4,2.45e-4 9.99e-4,4.73e-4 0.0016,7.03e-4 0.102333,0.04986 0.214282,0.07495 0.334561,0.07495 0.04919,0 0.102064,-0.0043 0.158289,-0.01225 0.05897,-0.0081 0.09915,-0.0158 0.130947,-0.03172 0.01561,-0.0081 0.02536,-0.02424 0.02518,-0.04183 v -0.09296 c 1.27e-4,-0.02147 -0.01446,-0.04023 -0.03525,-0.0454 -0.09976,-0.02442 -0.213625,-0.114131 -0.334562,-0.278157 -1.76e-4,-2e-6 -5.28e-4,-2e-6 -7.01e-4,0 l -0.49429,-0.655765 0.353267,-0.43021 c 0.05388,-0.06377 0.108807,-0.108534 0.164042,-0.136196 0.05525,-0.02766 0.117001,-0.04179 0.188508,-0.04179 0.0259,1.93e-4 0.04696,-0.02089 0.04677,-0.04684 v -0.10089 c 1.76e-4,-0.02594 -0.02086,-0.04703 -0.04677,-0.04684 h -0.07771 c -0.135061,0 -0.247115,0.02456 -0.334564,0.07711 -0.08439,0.05072 -0.170246,0.130297 -0.260449,0.239244 -2e-6,2.29e-4 -2e-6,4.75e-4 0,7.03e-4 l -0.387809,0.474888 V 30.52595 c 0,-0.134415 -0.01021,-0.238725 -0.03307,-0.316351 v -7.03e-4 c -0.02295,-0.07998 -0.06413,-0.143428 -0.124472,-0.181596 -0.06038,-0.03821 -0.140482,-0.05404 -0.23887,-0.05404 z" /></g><path
           id="path153"
           style="font-size:2.55684px;font-family:Philosopher;-inkscape-font-specification:Philosopher;fill:#000000;fill-opacity:1;stroke:none;stroke-width:0;stroke-linecap:square;stroke-linejoin:bevel;stroke-dasharray:none;stroke-dashoffset:0;paint-order:markers stroke fill"
           d="m 81.625554,30.378302 h -0.04677 v 0.104729 h 0.04677 c 0.02788,0 0.04728,-0.0039 0.05817,-0.01176 0.01116,-0.0079 0.01673,-0.02125 0.01673,-0.04022 0,-0.01922 -0.0056,-0.03276 -0.01673,-0.0406 -0.01116,-0.0081 -0.03055,-0.01214 -0.05817,-0.01214 z m 0.0027,-0.03908 c 0.04461,0 0.07794,0.0076 0.1,0.02277 0.02205,0.01492 0.03308,0.0377 0.03308,0.0683 0,0.02175 -0.0067,0.03972 -0.02015,0.05389 -0.01318,0.01417 -0.03194,0.0234 -0.05627,0.0277 0.0061,0.002 0.0133,0.008 0.02167,0.01784 0.0086,0.0096 0.01876,0.02366 0.03042,0.04212 l 0.05209,0.08462 h -0.0654 l -0.04905,-0.07931 c -0.01497,-0.02429 -0.02713,-0.03959 -0.0365,-0.04591 -0.0092,-0.0066 -0.02053,-0.0099 -0.03422,-0.0099 h -0.02509 v 0.135083 h -0.05893 v -0.317224 z m 0.0076,-0.07893 c -0.03321,0 -0.06413,0.006 -0.09278,0.01784 -0.02864,0.01189 -0.05487,0.02972 -0.0787,0.05351 -0.02383,0.02378 -0.04182,0.05022 -0.05399,0.07931 -0.01217,0.02884 -0.01826,0.0597 -0.01826,0.09259 0,0.03263 0.0061,0.06337 0.01826,0.09221 0.01217,0.02858 0.03017,0.05477 0.05399,0.07855 0.02383,0.02378 0.05006,0.04174 0.0787,0.05388 0.02864,0.01189 0.05957,0.01784 0.09278,0.01784 0.03346,0 0.06451,-0.006 0.09315,-0.01784 0.02889,-0.01214 0.05526,-0.0301 0.07908,-0.05388 0.02358,-0.02353 0.0412,-0.04958 0.05285,-0.07817 0.01191,-0.02858 0.01788,-0.05945 0.01788,-0.09259 0,-0.03365 -0.006,-0.06476 -0.01788,-0.09335 -0.01191,-0.02884 -0.02953,-0.05502 -0.05285,-0.07854 -0.02383,-0.02378 -0.05019,-0.04161 -0.07908,-0.05351 -0.02864,-0.01189 -0.0597,-0.01784 -0.09315,-0.01784 z m 0,-0.03908 c 0.03853,0 0.07439,0.007 0.107601,0.02087 0.03346,0.01391 0.06401,0.03466 0.09163,0.06223 0.02763,0.02758 0.04828,0.05793 0.06197,0.09107 0.01368,0.03314 0.02054,0.06919 0.02054,0.108146 0,0.03845 -0.0069,0.07424 -0.02054,0.107385 -0.01368,0.03289 -0.03435,0.06312 -0.06197,0.09069 -0.02763,0.02758 -0.05817,0.04831 -0.09163,0.06223 -0.03321,0.01391 -0.06907,0.02087 -0.107601,0.02087 -0.03853,0 -0.07452,-0.007 -0.107983,-0.02087 -0.03321,-0.01392 -0.06363,-0.03466 -0.09125,-0.06223 -0.02763,-0.02758 -0.04828,-0.0578 -0.06197,-0.09069 -0.01368,-0.03314 -0.02054,-0.06893 -0.02054,-0.107385 0,-0.03896 0.0069,-0.075 0.02054,-0.108146 0.01368,-0.03314 0.03435,-0.0635 0.06197,-0.09107 0.02763,-0.02758 0.05804,-0.04831 0.09125,-0.06223 0.03346,-0.01391 0.06945,-0.02087 0.107983,-0.02087 z" /></g><g
         id="g331"
         transform="matrix(0.17229219,0,0,0.17229219,119.75487,58.697591)"
         style="stroke-width:5.80409"><path
           id="path10113-75"
           style="fill:#e35336;fill-opacity:1;stroke:none;stroke-width:0.767835;stroke-linecap:round;stroke-linejoin:bevel;stroke-dasharray:none;stroke-dashoffset:0"
           d="m -230.86183,-192.52869 c -15.49972,0 -24.15998,9.69489 -24.15998,25.03624 v 5.21038 c 0,15.64765 8.45475,25.03737 24.15883,25.03737 h 6.96632 c 15.61582,0 24.15884,-9.28157 24.15884,-25.03394 v -5.21723 c 0,-15.85419 -7.84239,-25.03282 -24.16001,-25.03282 z"
           sodipodi:nodetypes="ccccccccc" /><path
           style="fill:#f0a89a;fill-opacity:1;stroke:none;stroke-width:0.767835;stroke-linecap:round;stroke-linejoin:bevel;stroke-dasharray:none;stroke-dashoffset:0"
           d="m -241.66092,-170.88984 -8.96074,9.6644 c -0.40998,0.44217 -0.39168,1.38872 0.0412,1.80849 l 9.31077,9.02868 c 0.0865,0.0839 0.23557,0.14381 0.34767,0.0995 l 0.92535,-0.36577 c 0.1516,-0.0599 0.22976,-0.34073 0.13171,-0.47096 l -6.67237,-8.86241 c -0.1982,-0.26325 -0.19644,-0.71487 -0.0128,-0.98848 l 6.28468,-9.3636 c 0.0544,-0.081 0.0204,-0.24943 -0.0709,-0.28388 l -1.02411,-0.38649 c -0.10095,-0.0381 -0.2271,0.0414 -0.30046,0.12052 z"
           id="path330" /><path
           d="m -220.78118,-150.28013 q -1.91747,0 -3.52988,-0.78152 -1.56884,-0.82494 -2.96337,-2.69191 l -4.18357,-5.47065 v 8.5099 h -5.66525 v -23.01146 q 0,-2.21432 -0.6101,-3.25634 -0.6101,-1.08545 -2.44042,-1.08545 h -0.43579 v -1.30254 h 5.22947 q 1.56884,0 2.39683,0.52102 0.828,0.52101 1.17663,1.73671 0.34863,1.17228 0.34863,3.3866 v 12.37408 l 5.27305,-6.42584 q 1.48168,-1.78013 2.78904,-2.56165 1.30737,-0.78152 3.48631,-0.78152 h 0.87158 v 1.12886 q -1.30737,0 -2.35326,0.52102 -1.04589,0.52101 -2.00463,1.64988 l -4.22715,5.1233 5.79599,7.64154 q 2.09179,2.82217 4.05283,3.29976 v 1.04203 q -0.34863,0.17367 -1.30736,0.30393 -0.91516,0.13024 -1.69958,0.13024 z"
           style="font-weight:bold;font-size:24.3347px;font-family:Philosopher;-inkscape-font-specification:Philosopher;text-align:justify;fill:#ffffff;fill-opacity:1;stroke:none;stroke-width:0.767835;stroke-linecap:round;stroke-linejoin:bevel;stroke-dasharray:none;stroke-dashoffset:0"
           id="path10119-5" /><path
           style="fill:#f0a89a;fill-opacity:1;stroke:none;stroke-width:0.767835;stroke-linecap:round;stroke-linejoin:bevel;stroke-dasharray:none;stroke-dashoffset:0"
           d="m -213.09819,-170.88984 8.96074,9.6644 c 0.40998,0.44217 0.39168,1.38872 -0.0412,1.80849 l -9.31077,9.02868 c -0.0865,0.0839 -0.23557,0.14381 -0.34767,0.0995 l -0.92535,-0.36577 c -0.1516,-0.0599 -0.22976,-0.34073 -0.13171,-0.47096 l 6.67237,-8.86241 c 0.1982,-0.26325 0.19644,-0.71487 0.0128,-0.98848 l -6.28468,-9.3636 c -0.0544,-0.081 -0.0204,-0.24943 0.0709,-0.28388 l 1.02411,-0.38649 c 0.10095,-0.0381 0.2271,0.0414 0.30046,0.12052 z"
           id="path331" /></g></g><g
       id="g369"
       transform="translate(-56.004999,-14.767081)"><g
         id="g367"
         transform="translate(-0.98221381)"><path
           id="path339"
           style="font-size:2.55684px;font-family:Philosopher;-inkscape-font-specification:Philosopher;fill:#000000;fill-opacity:1;stroke:none;stroke-width:0;stroke-linecap:square;stroke-linejoin:bevel;stroke-dasharray:none;stroke-dashoffset:0;paint-order:markers stroke fill"
           d="m 93.725611,48.656 h -0.04857 v 0.108755 h 0.04857 c 0.02895,0 0.0491,-0.004 0.06041,-0.01221 0.01159,-0.0082 0.01737,-0.02207 0.01737,-0.04177 0,-0.01996 -0.0058,-0.03402 -0.01737,-0.04216 -0.01159,-0.0084 -0.03172,-0.01261 -0.06041,-0.01261 z m 0.0028,-0.04058 c 0.04632,0 0.08094,0.0079 0.103844,0.02365 0.0229,0.01549 0.03435,0.03915 0.03435,0.07093 0,0.02259 -0.007,0.04125 -0.02092,0.05596 -0.01369,0.01472 -0.03317,0.0243 -0.05843,0.02876 0.0063,0.0021 0.01381,0.0083 0.0225,0.01853 0.0089,0.01 0.01948,0.02457 0.03159,0.04374 l 0.05409,0.08787 h -0.06791 l -0.05094,-0.08236 c -0.01555,-0.02522 -0.02817,-0.04111 -0.0379,-0.04767 -0.0096,-0.0069 -0.02132,-0.01028 -0.03554,-0.01028 h -0.02605 v 0.140276 H 93.6159 v -0.329419 z m 0.0079,-0.08196 c -0.03449,0 -0.06659,0.0062 -0.09635,0.01853 -0.02974,0.01235 -0.05698,0.03086 -0.08173,0.05557 -0.02475,0.02469 -0.04343,0.05215 -0.05607,0.08236 -0.01264,0.02995 -0.01896,0.06199 -0.01896,0.09615 0,0.03388 0.0063,0.06581 0.01896,0.09576 0.01264,0.02968 0.03133,0.05687 0.05607,0.08157 0.02475,0.02469 0.05198,0.04334 0.08173,0.05595 0.02974,0.01235 0.06186,0.01853 0.09635,0.01853 0.03475,0 0.06699,-0.0062 0.09673,-0.01853 0.03,-0.01261 0.05738,-0.03126 0.08212,-0.05595 0.02449,-0.02443 0.04278,-0.05149 0.05488,-0.08118 0.01237,-0.02968 0.01857,-0.06173 0.01857,-0.09615 0,-0.03494 -0.0062,-0.06725 -0.01857,-0.09694 -0.01237,-0.02995 -0.03066,-0.05713 -0.05488,-0.08156 -0.02475,-0.02469 -0.05212,-0.04321 -0.08212,-0.05557 -0.02974,-0.01235 -0.06199,-0.01853 -0.09673,-0.01853 z m 0,-0.04058 c 0.04001,0 0.07725,0.0073 0.111738,0.02167 0.03475,0.01444 0.06647,0.03599 0.09515,0.06462 0.02869,0.02864 0.05014,0.06016 0.06435,0.09457 0.01421,0.03441 0.02133,0.07185 0.02133,0.112303 0,0.03993 -0.0072,0.07709 -0.02133,0.111513 -0.01421,0.03415 -0.03567,0.06555 -0.06435,0.09418 -0.02869,0.02864 -0.06041,0.05017 -0.09515,0.06462 -0.03449,0.01445 -0.07173,0.02167 -0.111738,0.02167 -0.04001,0 -0.07738,-0.0073 -0.112134,-0.02167 -0.03449,-0.01445 -0.06608,-0.03599 -0.09476,-0.06462 -0.02869,-0.02864 -0.05014,-0.06002 -0.06435,-0.09418 -0.01421,-0.03441 -0.02133,-0.07158 -0.02133,-0.111513 0,-0.04046 0.0072,-0.07788 0.02133,-0.112303 0.01421,-0.03442 0.03567,-0.06594 0.06435,-0.09457 0.02869,-0.02864 0.06027,-0.05017 0.09476,-0.06462 0.03475,-0.01445 0.07212,-0.02167 0.112134,-0.02167 z m -1.292931,0.98561 c 0.08343,0 0.144001,0.03109 0.195754,0.101768 0.05071,0.06924 0.0792,0.174263 0.0792,0.318785 0,0.147888 -0.02661,0.253655 -0.07173,0.318037 -0.04511,0.06437 -0.107095,0.09428 -0.203225,0.09428 -0.09613,0 -0.157367,-0.0299 -0.202477,-0.09428 -0.04511,-0.06438 -0.07171,-0.170149 -0.07171,-0.318037 0,-0.150072 0.02813,-0.256759 0.07545,-0.322527 1.03e-4,-1.45e-4 -1.04e-4,-5.48e-4 0,-7.3e-4 0.05115,-0.06709 0.112219,-0.09728 0.19874,-0.09728 z m -0.144948,1.488412 0.168111,0.01796 c 1.81e-4,5e-5 5.46e-4,-5.1e-5 7.28e-4,0 0.117977,0.02276 0.206441,0.0701 0.271215,0.142182 5.47e-4,4.92e-4 9.11e-4,9.84e-4 0.0015,0.0015 0.06685,0.06933 0.09937,0.152883 0.09937,0.261163 0,0.139664 -0.03557,0.234749 -0.101612,0.296336 -1.83e-4,2.37e-4 -5.46e-4,4.92e-4 -7.29e-4,7.3e-4 -0.06763,0.06541 -0.162432,0.09952 -0.29363,0.09952 -0.131197,0 -0.225245,-0.03411 -0.292882,-0.09952 -1.83e-4,-2.38e-4 -5.46e-4,-4.93e-4 -7.29e-4,-7.3e-4 -0.06605,-0.06158 -0.101612,-0.156672 -0.101612,-0.296336 0,-0.11761 0.02309,-0.207084 0.065,-0.272389 0.04136,-0.06443 0.103003,-0.113457 0.185293,-0.150413 z m 0.144948,-1.746585 c -0.269624,0 -0.490133,0.05109 -0.658984,0.157147 -0.169595,0.108362 -0.256273,0.289324 -0.256273,0.521584 0,0.131223 0.04156,0.253517 0.122534,0.360691 1.83e-4,2.54e-4 5.47e-4,4.93e-4 7.29e-4,7.3e-4 0.07104,0.09077 0.165516,0.14714 0.266731,0.192319 -0.07405,0.05041 -0.147935,0.10499 -0.147935,0.190072 0,0.06406 0.01835,0.122238 0.05604,0.168373 0.01841,0.02253 0.05178,0.03242 0.07771,0.04864 -0.115175,0.04005 -0.227981,0.08391 -0.317537,0.157896 -0.116793,0.0965 -0.179315,0.224364 -0.179315,0.371917 0,0.233632 0.09854,0.41484 0.286905,0.519337 0.187823,0.10546 0.437585,0.155649 0.749387,0.155649 0.311506,0 0.560373,-0.05019 0.745654,-0.155649 0.191005,-0.104348 0.291389,-0.28551 0.291389,-0.519337 0,-0.216825 -0.105722,-0.391556 -0.302595,-0.505865 -0.192161,-0.115875 -0.436876,-0.174858 -0.732954,-0.180348 -0.138444,-0.0027 -0.239741,-0.01103 -0.298111,-0.02319 -0.02725,-0.0057 -0.04379,-0.01406 -0.0508,-0.02021 -0.0071,-0.0061 -0.0075,-0.0078 -0.0075,-0.01721 0,-0.01541 0.0025,-0.02203 0.0098,-0.02918 0.0072,-0.0072 0.02225,-0.01547 0.04857,-0.02096 7.29e-4,1.9e-5 0.0015,1.9e-5 0.0023,0 0.05661,-0.01417 0.156383,-0.02321 0.294377,-0.02321 0.285256,0 0.508388,-0.0488 0.66795,-0.153405 0.164607,-0.105986 0.248053,-0.285224 0.248053,-0.517089 0,-0.106375 -0.04209,-0.209441 -0.119543,-0.304569 l -7.29e-4,-7.3e-4 c -0.04798,-0.06079 -0.120987,-0.09462 -0.187535,-0.135446 l 0.245813,-0.03218 c 0.02397,-0.0031 0.04186,-0.02367 0.04184,-0.04788 v -0.109256 c 1.83e-4,-0.02694 -0.02166,-0.04884 -0.04857,-0.04864 z m -2.032988,0 c -0.244399,0 -0.431114,0.07046 -0.576798,0.18783 -0.03229,-0.04411 -0.06788,-0.08572 -0.118049,-0.106262 -0.06097,-0.02862 -0.138012,-0.04115 -0.233112,-0.04115 h -0.398976 c -0.02691,-2.02e-4 -0.04877,0.02169 -0.04857,0.04864 v 0.121227 c 1.8e-4,0.02666 0.02195,0.04809 0.04857,0.04789 h 0.04034 c 0.103388,0 0.154155,0.02711 0.179315,0.07557 1.82e-4,4.93e-4 5.47e-4,9.85e-4 7.28e-4,0.0015 0.03017,0.0518 0.05007,0.146168 0.05007,0.279124 v 1.373174 c -1.82e-4,0.02666 0.0212,0.04843 0.04781,0.04864 h 0.524497 c 0.02691,2.01e-4 0.04877,-0.02169 0.04857,-0.04864 v -1.397868 c 0,-0.07511 -0.0046,-0.130237 -0.01868,-0.172863 l -0.0037,-0.01871 c 0.02971,-0.0253 0.06282,-0.04921 0.110577,-0.06585 5.47e-4,7e-6 9.12e-4,7e-6 0.0015,0 0.05815,-0.02184 0.126012,-0.03368 0.204717,-0.03368 0.10665,0 0.181793,0.03539 0.240583,0.11075 1.81e-4,2.37e-4 5.47e-4,4.93e-4 7.27e-4,7.3e-4 0.05923,0.07301 0.09413,0.198107 0.09413,0.377902 v 1.199562 c -1.79e-4,0.02664 0.0212,0.0484 0.0478,0.04862 h 0.524497 c 0.0269,2e-4 0.04877,-0.02169 0.04857,-0.04864 v -1.195809 c 0,-0.263625 -0.06781,-0.466178 -0.209198,-0.596413 -1.56e-4,-1.49e-4 -5.48e-4,1.47e-4 -7.29e-4,0 -0.138115,-0.132145 -0.342386,-0.195312 -0.605191,-0.195312 z m -1.908216,-0.710908 c -0.07458,0 -0.142457,0.02471 -0.194258,0.07334 -1.83e-4,4.75e-4 -5.47e-4,9.69e-4 -7.28e-4,0.0015 -0.05019,0.05027 -0.07472,0.120484 -0.07472,0.199801 0,0.09575 0.0295,0.181921 0.08817,0.249941 1.81e-4,2.37e-4 5.47e-4,4.93e-4 7.27e-4,7.3e-4 0.06347,0.06993 0.154865,0.104769 0.261502,0.104769 0.07424,0 0.141158,-0.02505 0.190521,-0.07408 l 7.3e-4,-7.29e-4 c 0.05269,-0.0499 0.0792,-0.120227 0.0792,-0.199803 0,-0.09589 -0.03148,-0.182172 -0.09264,-0.24994 -0.06095,-0.07068 -0.151879,-0.105514 -0.258514,-0.105514 z m -0.504325,0.751317 c -0.02661,2.19e-4 -0.04801,0.02198 -0.04781,0.04864 v 0.121227 c 1.83e-4,0.02637 0.02151,0.04769 0.04781,0.04789 h 0.04034 c 0.103388,0 0.156186,0.02694 0.183797,0.07634 1.84e-4,2.36e-4 5.48e-4,4.93e-4 7.29e-4,7.29e-4 0.03016,0.0518 0.05006,0.146166 0.05006,0.279123 v 1.373175 c -1.82e-4,0.02665 0.0212,0.04842 0.04781,0.04864 h 0.524498 c 0.0269,2.02e-4 0.04877,-0.02169 0.04857,-0.04864 v -1.373177 c 0,-0.139582 -0.01062,-0.247906 -0.03436,-0.328512 v -7.3e-4 c -0.02382,-0.08306 -0.06659,-0.148942 -0.129257,-0.188578 -0.0627,-0.03968 -0.145881,-0.05612 -0.248053,-0.05612 z m -1.105032,0.237968 c 0.06968,0 0.144645,0.0181 0.225641,0.05613 0.02702,0.01364 0.04858,0.02816 0.06873,0.04265 v 1.192825 c -0.02843,0.05054 -0.05581,0.09031 -0.07844,0.112999 -1.81e-4,4.74e-4 -5.47e-4,9.68e-4 -7.28e-4,0.0015 -0.07392,0.07896 -0.149739,0.113744 -0.23535,0.113742 -0.117045,2e-6 -0.192831,-0.054 -0.249549,-0.184084 -0.05553,-0.136487 -0.08517,-0.328763 -0.08517,-0.575463 0,-0.265336 0.03414,-0.461272 0.09564,-0.584439 0.06149,-0.123167 0.140855,-0.175854 0.259256,-0.175854 z m 0.02017,-1.005746 c -0.02691,-2.01e-4 -0.04877,0.02169 -0.04857,0.04864 v 0.121227 c 1.83e-4,0.02666 0.02195,0.04809 0.04857,0.04788 h 0.04034 c 0.103397,0 0.156186,0.02694 0.183799,0.07634 1.83e-4,2.36e-4 5.46e-4,4.93e-4 7.28e-4,7.3e-4 0.03016,0.0518 0.04931,0.146166 0.04931,0.279122 v 0.242458 c -0.01493,-0.0078 -0.02842,-0.01663 -0.04407,-0.02396 -0.0012,-5.48e-4 -0.0025,-10e-4 -0.0037,-0.0015 -0.114538,-0.04197 -0.223737,-0.06362 -0.32725,-0.06362 -0.290356,0 -0.523088,0.09987 -0.682892,0.297085 -0.155762,0.192881 -0.232363,0.442486 -0.232363,0.741589 0,0.298958 0.07513,0.549096 0.22788,0.744581 1.81e-4,2.54e-4 5.46e-4,4.93e-4 7.28e-4,7.3e-4 0.156989,0.194399 0.384013,0.292593 0.666456,0.292593 0.150724,0 0.280057,-0.03942 0.381046,-0.119731 0.03844,-0.02855 0.06336,-0.0593 0.0889,-0.08981 l 0.117303,0.150414 c 0.0091,0.01181 0.0232,0.01871 0.0381,0.01871 h 0.342941 c 0.02661,-2.18e-4 0.04802,-0.02198 0.04782,-0.04864 v -2.140963 c 0,-0.139896 -0.01052,-0.248596 -0.03437,-0.329262 -0.02384,-0.08285 -0.06671,-0.149014 -0.129256,-0.188579 -0.0627,-0.03968 -0.145131,-0.05613 -0.247307,-0.05613 z m -2.230977,1.005746 c 0.119832,0 0.203892,0.05796 0.271215,0.195312 0.06803,0.138798 0.104604,0.327388 0.104604,0.564985 0,0.237595 -0.03656,0.425436 -0.104604,0.564235 -0.06732,0.137355 -0.151383,0.195311 -0.271215,0.195311 -0.119833,0 -0.203892,-0.05796 -0.271215,-0.195311 -0.06803,-0.138799 -0.103857,-0.32664 -0.103857,-0.564235 0,-0.237597 0.03583,-0.426187 0.103857,-0.564985 0.06732,-0.137355 0.151382,-0.195312 0.271215,-0.195312 z m 0,-0.278377 c -0.203589,0 -0.384954,0.04694 -0.540936,0.140686 -0.152345,0.09055 -0.270855,0.215957 -0.352653,0.374163 -0.08187,0.155514 -0.122531,0.331201 -0.122531,0.523825 0,0.192621 0.04082,0.368787 0.122531,0.526818 -2e-6,2.38e-4 -2e-6,4.92e-4 0,7.3e-4 0.08189,0.155561 0.199789,0.281056 0.351906,0.374162 5.47e-4,7e-6 9.11e-4,7e-6 0.0015,0 0.155927,0.09086 0.336821,0.136194 0.540187,0.136194 0.203368,0 0.38378,-0.04514 0.537199,-0.136194 0.154843,-0.09305 0.27439,-0.218399 0.356389,-0.374162 1.83e-4,-2.38e-4 5.47e-4,-4.92e-4 7.29e-4,-7.3e-4 0.0817,-0.158031 0.122533,-0.334197 0.122533,-0.526818 0,-0.192624 -0.0414,-0.368311 -0.123281,-0.523825 h 7.29e-4 c -0.08182,-0.158252 -0.202291,-0.283707 -0.357128,-0.374163 -0.153342,-0.09369 -0.333875,-0.140686 -0.537199,-0.140686 z m -2.000863,0 c -0.213967,0 -0.399711,0.04647 -0.553635,0.140686 -0.152414,0.09328 -0.269766,0.220846 -0.348919,0.3794 -0.07607,0.15521 -0.113568,0.329031 -0.113568,0.518588 0,0.189553 0.03763,0.363852 0.113568,0.52158 1.82e-4,2.38e-4 5.47e-4,4.93e-4 7.27e-4,7.3e-4 0.07922,0.15585 0.195943,0.281735 0.348174,0.37491 0.153923,0.09421 0.339667,0.140684 0.553633,0.140684 0.213344,0 0.386388,-0.04127 0.515535,-0.129459 0.123526,-0.08436 0.226461,-0.190839 0.307823,-0.31729 0.01337,-0.02129 0.0082,-0.0493 -0.01196,-0.06435 l -0.124772,-0.09278 c -0.02127,-0.01581 -0.0513,-0.01149 -0.06725,0.0098 -0.07814,0.104347 -0.159682,0.183202 -0.242822,0.238718 -0.07674,0.05026 -0.174096,0.07708 -0.295872,0.07708 -0.155233,0 -0.260573,-0.0572 -0.336963,-0.179597 -0.0764,-0.122414 -0.118796,-0.315617 -0.118796,-0.579951 0,-0.261468 0.04276,-0.453712 0.121039,-0.576209 0.08211,-0.127104 0.181528,-0.184087 0.314548,-0.184087 0.155098,0 0.269311,0.0424 0.353401,0.124221 1.82e-4,2e-6 5.47e-4,2e-6 7.28e-4,0 0.08366,0.07899 0.132479,0.19486 0.142705,0.356202 0.0018,0.02519 0.02263,0.04476 0.04781,0.0449 h 0.12104 c 0.02632,-2.2e-4 0.0476,-0.02153 0.04781,-0.04788 0,-0.181435 -0.005,-0.309869 -0.01642,-0.390625 -0.01191,-0.08355 -0.04413,-0.155709 -0.09788,-0.209532 -0.113603,-0.113781 -0.332318,-0.155651 -0.659732,-0.155651 z m -2.190637,0.278377 c 0.114073,0 0.189539,0.05523 0.24656,0.189325 0.05799,0.136361 0.0889,0.327182 0.0889,0.570972 0,0.265337 -0.03414,0.461273 -0.09562,0.584439 -0.06149,0.123166 -0.141603,0.175107 -0.260006,0.175107 -0.08146,0 -0.155044,-0.01796 -0.223399,-0.05462 -7.3e-4,-5.12e-4 -0.0015,-9.86e-4 -0.0022,-0.0015 -0.02484,-0.01149 -0.04701,-0.02668 -0.06874,-0.04267 v -1.109744 c 0,-0.06218 -0.0052,-0.111938 -0.01868,-0.152659 l -0.0029,-0.01571 c 0.098,-0.09073 0.205517,-0.142928 0.336217,-0.142928 z m 0.0807,-0.278377 c -0.201099,0 -0.37791,0.07968 -0.535705,0.20504 -0.03077,-0.04815 -0.06332,-0.09499 -0.111325,-0.118236 -0.06189,-0.03263 -0.141863,-0.0464 -0.24058,-0.0464 h -0.398978 c -0.02691,-2e-4 -0.04877,0.02169 -0.04857,0.04864 v 0.121227 c 1.84e-4,0.02666 0.02195,0.04809 0.04857,0.04789 h 0.04034 c 0.103387,0 0.154154,0.02711 0.179315,0.07557 1.82e-4,4.93e-4 5.46e-4,9.85e-4 7.29e-4,0.0015 0.03015,0.0518 0.05006,0.14617 0.05006,0.279126 v 2.140953 c -1.82e-4,0.02666 0.0212,0.04843 0.04782,0.04864 h 0.524496 c 0.02691,2.03e-4 0.04877,-0.02169 0.04857,-0.04864 v -0.767795 c 0.01589,0.0079 0.02907,0.01815 0.04632,0.0247 0.102817,0.04292 0.212605,0.06435 0.328747,0.06435 0.2902,0 0.5219,-0.09787 0.679157,-0.292596 0.158358,-0.195427 0.236845,-0.446075 0.236845,-0.745329 0,-0.298831 -0.07764,-0.548033 -0.23311,-0.740841 -0.154204,-0.196992 -0.380381,-0.297832 -0.662719,-0.297832 z m -2.307192,0.278377 c 0.09459,0 0.159116,0.04029 0.21219,0.136944 0.04621,0.08202 0.06942,0.252633 0.07471,0.465455 h -0.573806 c 0.0055,-0.207687 0.02982,-0.37523 0.07844,-0.460218 0.05894,-0.100844 0.123592,-0.142181 0.208454,-0.142181 z m 0,-0.278377 c -0.176826,0 -0.338346,0.04168 -0.480416,0.124223 -0.142306,0.08006 -0.255393,0.199008 -0.336964,0.353955 -2e-6,2.38e-4 -2e-6,4.93e-4 0,7.3e-4 -0.07948,0.156371 -0.11805,0.343865 -0.11805,0.559745 0,0.19499 0.03916,0.372522 0.11805,0.530561 -2e-6,2.38e-4 -2e-6,4.92e-4 0,7.3e-4 0.08175,0.155262 0.197497,0.279853 0.344436,0.370419 0.147952,0.0912 0.320273,0.136196 0.513291,0.136196 0.202927,0 0.369217,-0.04207 0.495359,-0.130209 0.123329,-0.08431 0.226559,-0.190243 0.307825,-0.316541 0.01337,-0.02129 0.0082,-0.0493 -0.01195,-0.06435 l -0.12552,-0.09279 c -0.02127,-0.01582 -0.0513,-0.01149 -0.06725,0.0098 -0.07813,0.104347 -0.158935,0.183201 -0.242077,0.238715 -0.07682,0.05049 -0.173808,0.07708 -0.295868,0.07708 -0.126564,0 -0.21638,-0.04791 -0.286905,-0.152657 -0.06287,-0.09581 -0.09297,-0.269972 -0.09937,-0.486409 h 1.156583 c 0.02469,-7.2e-5 0.04533,-0.01881 0.04782,-0.0434 l 0.0082,-0.08082 c 2e-6,-2.37e-4 2e-6,-4.92e-4 0,-7.3e-4 0.0055,-0.06569 0.0082,-0.12448 0.0082,-0.177353 0,-0.166832 -0.04158,-0.317459 -0.124773,-0.446749 -0.08249,-0.130717 -0.19633,-0.233015 -0.337711,-0.303818 -0.141598,-0.07092 -0.299726,-0.106263 -0.472944,-0.106263 z m -2.053161,0.278377 c 0.09459,0 0.158368,0.04029 0.211439,0.136944 1.84e-4,10e-7 5.48e-4,10e-7 7.29e-4,0 0.0462,0.08202 0.06942,0.252633 0.07472,0.465455 h -0.573799 c 0.0056,-0.207687 0.02981,-0.37523 0.07844,-0.460218 0.05895,-0.100844 0.123595,-0.142181 0.208458,-0.142181 z m 0,-0.278377 c -0.176828,0 -0.338347,0.04168 -0.480417,0.124223 -0.142308,0.08006 -0.25539,0.199008 -0.336964,0.353955 -1.84e-4,2.38e-4 -5.48e-4,4.93e-4 -7.29e-4,7.3e-4 -0.07948,0.156371 -0.118051,0.343865 -0.118051,0.559745 0,0.19499 0.03915,0.372522 0.118051,0.530561 1.81e-4,2.56e-4 5.45e-4,4.92e-4 7.29e-4,7.3e-4 0.08175,0.155262 0.197496,0.279853 0.344434,0.370419 0.147952,0.0912 0.320274,0.136196 0.513291,0.136196 0.202928,0 0.369221,-0.04207 0.495359,-0.130209 0.123137,-0.08427 0.225909,-0.190392 0.307078,-0.316541 0.01352,-0.02111 0.0086,-0.04909 -0.01122,-0.06435 l -0.125524,-0.09279 c -0.02127,-0.01582 -0.0513,-0.01149 -0.06725,0.0098 -0.07813,0.104347 -0.158937,0.183201 -0.242074,0.238715 -0.07682,0.05049 -0.17381,0.07708 -0.295872,0.07708 -0.126565,0 -0.216379,-0.04791 -0.286906,-0.152657 -0.06286,-0.09581 -0.09297,-0.269972 -0.09937,-0.486409 H 77.082 c 0.0247,-7.2e-5 0.04533,-0.01881 0.04782,-0.0434 l 0.0082,-0.08082 c 10e-7,-2.37e-4 10e-7,-4.92e-4 0,-7.3e-4 0.0055,-0.06569 0.0082,-0.12448 0.0082,-0.177353 0,-0.166573 -0.04185,-0.316849 -0.124772,-0.445999 -0.08256,-0.131157 -0.196,-0.233602 -0.337713,-0.304568 C 76.542149,49.255697 76.384018,49.22035 76.2108,49.22035 Z m -3.02147,-0.727369 c -0.0269,-2.01e-4 -0.04877,0.02169 -0.04856,0.04864 v 0.121227 c 1.81e-4,0.02665 0.02195,0.04808 0.04856,0.04788 h 0.04034 c 0.103398,0 0.15619,0.02694 0.183802,0.07634 -1e-6,2.36e-4 -1e-6,4.93e-4 0,7.3e-4 0.03014,0.0518 0.05006,0.146166 0.05006,0.279122 v 2.140954 c -1.83e-4,0.02694 0.02166,0.04884 0.04857,0.04864 h 0.523745 c 0.02691,2.01e-4 0.04877,-0.02169 0.04857,-0.04864 v -0.648049 l 0.300358,0.394367 c 0.08918,0.120049 0.185758,0.208718 0.290639,0.264158 5.47e-4,2.54e-4 0.001,4.91e-4 0.0017,7.3e-4 0.106267,0.05178 0.22252,0.07783 0.347423,0.07783 0.05108,0 0.105988,-0.0045 0.164374,-0.01272 0.06124,-0.0084 0.102962,-0.01641 0.135981,-0.03294 0.01621,-0.0084 0.02634,-0.02517 0.02615,-0.04344 v -0.09653 c 1.32e-4,-0.02229 -0.01502,-0.04178 -0.03661,-0.04714 -0.103595,-0.02536 -0.221837,-0.118519 -0.347424,-0.288851 -1.82e-4,-2e-6 -5.48e-4,-2e-6 -7.28e-4,0 l -0.513292,-0.680975 0.366848,-0.446749 c 0.05595,-0.06622 0.11299,-0.112706 0.170348,-0.141432 0.05737,-0.02872 0.121499,-0.0434 0.195755,-0.0434 0.0269,2.01e-4 0.04877,-0.02169 0.04857,-0.04864 v -0.104769 c 1.83e-4,-0.02694 -0.02166,-0.04884 -0.04857,-0.04864 h -0.0807 c -0.140253,0 -0.256615,0.0255 -0.347426,0.08008 -0.08763,0.05267 -0.176791,0.135306 -0.270462,0.248441 -2e-6,2.38e-4 -2e-6,4.94e-4 0,7.3e-4 l -0.402718,0.493145 v -1.016218 c 0,-0.139583 -0.0106,-0.247903 -0.03434,-0.328513 v -7.3e-4 c -0.02383,-0.08305 -0.0666,-0.148942 -0.129257,-0.188577 -0.0627,-0.03968 -0.145883,-0.05612 -0.248054,-0.05612 z" /></g><g
         id="g343"
         transform="matrix(0.07896726,0,0,0.07896726,86.726707,62.90251)"
         style="stroke-width:12.6635"><path
           id="path340"
           style="fill:#e35336;fill-opacity:1;stroke:none;stroke-width:1.67528;stroke-linecap:round;stroke-linejoin:bevel;stroke-dasharray:none;stroke-dashoffset:0"
           d="m -230.86183,-192.52869 c -15.49972,0 -24.15998,9.69489 -24.15998,25.03624 v 5.21038 c 0,15.64765 8.45475,25.03737 24.15883,25.03737 h 6.96632 c 15.61582,0 24.15884,-9.28157 24.15884,-25.03394 v -5.21723 c 0,-15.85419 -7.84239,-25.03282 -24.16001,-25.03282 z"
           sodipodi:nodetypes="ccccccccc" /><path
           style="fill:#f0a89a;fill-opacity:1;stroke:none;stroke-width:1.67528;stroke-linecap:round;stroke-linejoin:bevel;stroke-dasharray:none;stroke-dashoffset:0"
           d="m -241.66092,-170.88984 -8.96074,9.6644 c -0.40998,0.44217 -0.39168,1.38872 0.0412,1.80849 l 9.31077,9.02868 c 0.0865,0.0839 0.23557,0.14381 0.34767,0.0995 l 0.92535,-0.36577 c 0.1516,-0.0599 0.22976,-0.34073 0.13171,-0.47096 l -6.67237,-8.86241 c -0.1982,-0.26325 -0.19644,-0.71487 -0.0128,-0.98848 l 6.28468,-9.3636 c 0.0544,-0.081 0.0204,-0.24943 -0.0709,-0.28388 l -1.02411,-0.38649 c -0.10095,-0.0381 -0.2271,0.0414 -0.30046,0.12052 z"
           id="path341" /><path
           d="m -220.78118,-150.28013 q -1.91747,0 -3.52988,-0.78152 -1.56884,-0.82494 -2.96337,-2.69191 l -4.18357,-5.47065 v 8.5099 h -5.66525 v -23.01146 q 0,-2.21432 -0.6101,-3.25634 -0.6101,-1.08545 -2.44042,-1.08545 h -0.43579 v -1.30254 h 5.22947 q 1.56884,0 2.39683,0.52102 0.828,0.52101 1.17663,1.73671 0.34863,1.17228 0.34863,3.3866 v 12.37408 l 5.27305,-6.42584 q 1.48168,-1.78013 2.78904,-2.56165 1.30737,-0.78152 3.48631,-0.78152 h 0.87158 v 1.12886 q -1.30737,0 -2.35326,0.52102 -1.04589,0.52101 -2.00463,1.64988 l -4.22715,5.1233 5.79599,7.64154 q 2.09179,2.82217 4.05283,3.29976 v 1.04203 q -0.34863,0.17367 -1.30736,0.30393 -0.91516,0.13024 -1.69958,0.13024 z"
           style="font-weight:bold;font-size:24.3347px;font-family:Philosopher;-inkscape-font-specification:Philosopher;text-align:justify;fill:#ffffff;fill-opacity:1;stroke:none;stroke-width:1.67528;stroke-linecap:round;stroke-linejoin:bevel;stroke-dasharray:none;stroke-dashoffset:0"
           id="path342" /><path
           style="fill:#f0a89a;fill-opacity:1;stroke:none;stroke-width:1.67528;stroke-linecap:round;stroke-linejoin:bevel;stroke-dasharray:none;stroke-dashoffset:0"
           d="m -213.09819,-170.88984 8.96074,9.6644 c 0.40998,0.44217 0.39168,1.38872 -0.0412,1.80849 l -9.31077,9.02868 c -0.0865,0.0839 -0.23557,0.14381 -0.34767,0.0995 l -0.92535,-0.36577 c -0.1516,-0.0599 -0.22976,-0.34073 -0.13171,-0.47096 l 6.67237,-8.86241 c 0.1982,-0.26325 0.19644,-0.71487 0.0128,-0.98848 l -6.28468,-9.3636 c -0.0544,-0.081 -0.0204,-0.24943 0.0709,-0.28388 l 1.02411,-0.38649 c 0.10095,-0.0381 0.2271,0.0414 0.30046,0.12052 z"
           id="path343" /></g></g></g></svg>
