<?xml version="1.0" encoding="UTF-8" standalone="no"?>
<!-- Created with Inkscape (http://www.inkscape.org/) -->

<svg
   width="740"
   height="740"
   viewBox="0 0 195.79166 195.79167"
   version="1.1"
   id="svg5"
   xml:space="preserve"
   inkscape:version="1.4.3 (0d15f75, 2025-12-25)"
   sodipodi:docname="wallpaper.svg"
   inkscape:export-filename="wallpaper.png"
   inkscape:export-xdpi="96"
   inkscape:export-ydpi="96"
   inkscape:export-batch-name="icon-"
   inkscape:export-batch-path="D:\kai\workspace\kai\marca"
   xmlns:inkscape="http://www.inkscape.org/namespaces/inkscape"
   xmlns:sodipodi="http://sodipodi.sourceforge.net/DTD/sodipodi-0.dtd"
   xmlns:xlink="http://www.w3.org/1999/xlink"
   xmlns="http://www.w3.org/2000/svg"
   xmlns:svg="http://www.w3.org/2000/svg"><sodipodi:namedview
     id="namedview7"
     pagecolor="#ffffff"
     bordercolor="#000000"
     borderopacity="0.25"
     inkscape:showpageshadow="2"
     inkscape:pageopacity="0.0"
     inkscape:pagecheckerboard="0"
     inkscape:deskcolor="#d1d1d1"
     inkscape:document-units="px"
     showgrid="false"
     showguides="true"
     inkscape:zoom="0.35355339"
     inkscape:cx="137.17872"
     inkscape:cy="666.09459"
     inkscape:window-width="1920"
     inkscape:window-height="991"
     inkscape:window-x="-9"
     inkscape:window-y="-9"
     inkscape:window-maximized="1"
     inkscape:current-layer="layer1" /><defs
     id="defs2"><filter
       inkscape:collect="always"
       style="color-interpolation-filters:sRGB"
       id="filter1"
       x="-0.054573666"
       y="-0.042839747"
       width="1.1091473"
       height="1.0856795"><feGaussianBlur
         inkscape:collect="always"
         stdDeviation="1.2681857"
         id="feGaussianBlur1" /></filter><filter
       inkscape:collect="always"
       style="color-interpolation-filters:sRGB"
       id="filter2"
       x="-0.034576834"
       y="-0.07845863"
       width="1.0691537"
       height="1.1569173"><feGaussianBlur
         inkscape:collect="always"
         stdDeviation="1.6564447"
         id="feGaussianBlur2" /></filter></defs><g
     inkscape:label="Camada 1"
     inkscape:groupmode="layer"
     id="layer1"><image
       width="195.79167"
       height="195.79167"
       preserveAspectRatio="none"
       xlink:href="texture.png"
       id="image1"
       x="-2.2521972e-06"
       y="-3.3554688e-06"
       style="stroke-width:1.69459" /><text
       xml:space="preserve"
       style="font-style:normal;font-variant:normal;font-weight:normal;font-stretch:normal;font-size:0.358837px;font-family:impact;-inkscape-font-specification:impact;text-align:justify;fill:#000000;fill-opacity:1;stroke:none;stroke-width:1.19062;stroke-linecap:round;stroke-linejoin:bevel;stroke-dasharray:none;stroke-opacity:1"
       x="11.311686"
       y="57.079754"
       id="text3338"><tspan
         sodipodi:role="line"
         id="tspan3336"
         style="font-style:normal;font-variant:normal;font-weight:normal;font-stretch:normal;font-family:Dyuthi;-inkscape-font-specification:Dyuthi;fill:#000000;stroke:none;stroke-width:1.19062"
         x="11.311686"
         y="57.079754" /></text><path
       d="m 114.01166,133.52249 q -4.68309,0 -8.62111,-1.90873 -3.83163,-2.01476 -7.237528,-6.57453 L 87.935388,111.67811 v 20.78398 H 74.09899 V 76.260552 q 0,-5.408095 -1.490067,-7.95305 -1.490067,-2.651022 -5.960309,-2.651022 h -1.064341 v -3.18123 h 12.772083 q 3.831613,0 5.853844,1.272502 2.022244,1.272475 2.873709,4.241614 0.851479,2.863091 0.851479,8.271186 V 106.48211 L 100.8139,90.788104 q 3.61874,-4.34766 6.81174,-6.25639 3.19303,-1.908728 8.51472,-1.908728 h 2.12868 v 2.757047 q -3.19302,0 -5.74743,1.272503 -2.55441,1.272478 -4.89597,4.029548 l -10.324083,12.512766 14.155713,18.66316 q 5.10883,6.89266 9.89833,8.05909 v 2.54499 q -0.85148,0.42415 -3.193,0.74228 -2.23513,0.31809 -4.15094,0.31809 z"
       style="font-weight:bold;font-size:24.3347px;font-family:Philosopher;-inkscape-font-specification:Philosopher;text-align:justify;fill:#ffffff;fill-opacity:1;stroke:none;stroke-width:0.132292;stroke-linecap:round;stroke-linejoin:bevel;stroke-dasharray:none;stroke-dashoffset:0;filter:url(#filter1);opacity:0.5"
       id="path1" /><path
       d="m 114.01166,133.52249 q -4.68309,0 -8.62111,-1.90873 -3.83163,-2.01476 -7.237528,-6.57453 L 87.935388,111.67811 v 20.78398 H 74.09899 V 76.260552 q 0,-5.408095 -1.490067,-7.95305 -1.490067,-2.651022 -5.960309,-2.651022 h -1.064341 v -3.18123 h 12.772083 q 3.831613,0 5.853844,1.272502 2.022244,1.272475 2.873709,4.241614 0.851479,2.863091 0.851479,8.271186 V 106.48211 L 100.8139,90.788104 q 3.61874,-4.34766 6.81174,-6.25639 3.19303,-1.908728 8.51472,-1.908728 h 2.12868 v 2.757047 q -3.19302,0 -5.74743,1.272503 -2.55441,1.272478 -4.89597,4.029548 l -10.324083,12.512766 14.155713,18.66316 q 5.10883,6.89266 9.89833,8.05909 v 2.54499 q -0.85148,0.42415 -3.193,0.74228 -2.23513,0.31809 -4.15094,0.31809 z"
       style="font-weight:bold;font-size:24.3347px;font-family:Philosopher;-inkscape-font-specification:Philosopher;text-align:justify;fill:#ffffff;fill-opacity:1;stroke:none;stroke-width:0.132292;stroke-linecap:round;stroke-linejoin:bevel;stroke-dasharray:none;stroke-dashoffset:0"
       id="path10119-5" /><path
       id="path2"
       style="fill:#ffffff;fill-opacity:0.684378;stroke:none;stroke-width:0.132292;stroke-linecap:round;stroke-linejoin:bevel;stroke-dasharray:none;stroke-dashoffset:0;filter:url(#filter2);opacity:0.5"
       d="m 132.77606,83.186823 21.88505,23.603627 c 1.00131,1.07993 0.95662,3.39172 -0.10063,4.41693 l -22.74,22.051 c -0.21125,0.2049 -0.57534,0.35123 -0.84912,0.24301 l -2.26,-0.89333 c -0.37027,-0.14629 -0.56116,-0.83218 -0.3217,-1.15024 l 16.29613,-21.64491 c 0.48406,-0.64294 0.47978,-1.74595 0.0313,-2.41419 L 129.36786,84.529738 c -0.13289,-0.197829 -0.0497,-0.60919 0.17311,-0.693329 l 2.50122,-0.943935 c 0.24655,-0.09305 0.55465,0.1011 0.73383,0.294349 z m -69.759553,0 -21.885063,23.603627 c -1.001308,1.07993 -0.956612,3.39172 0.100629,4.41693 l 22.739952,22.051 c 0.211262,0.2049 0.575341,0.35123 0.849125,0.24301 l 2.260008,-0.89333 c 0.370258,-0.14629 0.561151,-0.83218 0.32168,-1.15024 L 51.106716,109.81291 c -0.48407,-0.64294 -0.479771,-1.74595 -0.03126,-2.41419 l 15.34924,-22.868982 c 0.132859,-0.197829 0.04983,-0.60919 -0.173152,-0.693329 l -2.501212,-0.943935 c -0.246553,-0.09305 -0.554654,0.1011 -0.733822,0.294349 z" /><path
       id="path331"
       style="fill:#ffffff;fill-opacity:0.5;stroke:none;stroke-width:0.132292;stroke-linecap:round;stroke-linejoin:bevel;stroke-dasharray:none;stroke-dashoffset:0"
       d="m 132.77606,83.186823 21.88505,23.603627 c 1.00131,1.07993 0.95662,3.39172 -0.10063,4.41693 l -22.74,22.051 c -0.21125,0.2049 -0.57534,0.35123 -0.84912,0.24301 l -2.26,-0.89333 c -0.37027,-0.14629 -0.56116,-0.83218 -0.3217,-1.15024 l 16.29613,-21.64491 c 0.48406,-0.64294 0.47978,-1.74595 0.0313,-2.41419 L 129.36786,84.529738 c -0.13289,-0.197829 -0.0497,-0.60919 0.17311,-0.693329 l 2.50122,-0.943935 c 0.24655,-0.09305 0.55465,0.1011 0.73383,0.294349 z m -69.759553,0 -21.885063,23.603627 c -1.001308,1.07993 -0.956612,3.39172 0.100629,4.41693 l 22.739952,22.051 c 0.211262,0.2049 0.575341,0.35123 0.849125,0.24301 l 2.260008,-0.89333 c 0.370258,-0.14629 0.561151,-0.83218 0.32168,-1.15024 L 51.106716,109.81291 c -0.48407,-0.64294 -0.479771,-1.74595 -0.03126,-2.41419 l 15.34924,-22.868982 c 0.132859,-0.197829 0.04983,-0.60919 -0.173152,-0.693329 l -2.501212,-0.943935 c -0.246553,-0.09305 -0.554654,0.1011 -0.733822,0.294349 z" /></g></svg>
